# xmcd CD database file
#
# Track frame offsets:
#	150
#	26133
#	50385
#	74453
#	99455
#	127113
#	150730
#	174383
#	200175
#	224585
#
# Disc length: 3306 seconds
#
# Revision: 2
# Processed by: cddbd v1.4PL0 Copyright (c) Steve Scherf et al.
# Submitted via: CDex 1.40Release
#
DISCID=990ce80a
DTITLE=Neznámý - Neznámý
DYEAR=1900
DGENRE=
TTITLE0=Skladba 1
TTITLE1=Skladba 2
TTITLE2=Skladba 3
TTITLE3=Skladba 4
TTITLE4=Skladba 5
TTITLE5=Skladba 6
TTITLE6=Skladba 7
TTITLE7=Skladba 8
TTITLE8=Skladba 9
TTITLE9=Skladba 10
EXTD=
EXTT0=
EXTT1=
EXTT2=
EXTT3=
EXTT4=
EXTT5=
EXTT6=
EXTT7=
EXTT8=
EXTT9=
PLAYORDER=
